<svg width="248.17" height="46.372" viewBox="0 0 369.667 69.074" xmlns="http://www.w3.org/2000/svg"><defs><linearGradient id="a"><stop stop-color="#006838" offset="0"/><stop stop-color="#96cf24" offset="1"/></linearGradient></defs><path xmlns="http://www.w3.org/2000/svg" d="m5 20.1 7.4-7.4 26.1 26.1 7.5 7.4-7.5 7.4-26.1 26.1L5 72.3l26.1-26.1zm90 67.2V75.7H48.8v11.6z" transform="translate(-4.63 -11.76)scale(.92593)" fill="url(#a)"/><path d="M109.037 57.443 103 51.405V18.038L109.037 12h5.778v8.18h-2.402l-1.234 1.233V48.03l1.234 1.233h2.402v8.18zm8.504 0v-8.18h2.402l1.234-1.233V42.9h8.18v8.504l-6.038 6.038zm3.636-30.901v-5.129l-1.234-1.233h-2.402V12h5.778l6.037 6.038v8.504zm34.524 30.9v-8.179h2.597l1.234-1.233V21.413l-1.234-1.233h-2.597V12h5.973l6.037 6.038v33.367l-6.037 6.038zm-8.763 0-6.038-6.037V18.038L146.938 12h5.972v8.18h-2.597l-1.233 1.233V48.03l1.233 1.233h2.597v8.18zm43.223 0v-8.179h6.038l1.233-1.233V21.413L196.2 20.18h-6.038V12h9.413l6.038 6.038v33.367l-6.038 6.038zm-10.906 0V12h8.18v45.443zm37.9-18.63V12h8.18v26.811zm0 18.63V41.539h8.18v15.905zm10.907 0v-8.179h11.36v8.18zm0-18.63v-8.18h7.725v8.18zm0-18.632V12h11.36v8.18zm47.627 37.263-6.038-6.038V30.632h19.41l6.038 6.037v14.736l-6.037 6.038h-5.324v-8.18h1.948l1.233-1.233v-7.985l-1.233-1.234h-6.622l-1.233 1.234v7.985l1.233 1.233h1.948v8.18zm-6.038-29.538v-9.867L275.69 12h13.373l6.037 6.038v8.504h-8.18v-5.129l-1.233-1.233h-6.622l-1.233 1.233v6.492zm40.887 18.631-5.193-5.193L321.639 12h9.348l-14.606 26.357h5.842v-4.934l8.18-14.736v19.67h1.363v8.18zm11.685 10.907v-8.18h8.18v8.18zm35.629 0v-8.18h2.402l1.233-1.233V21.413l-1.233-1.233h-2.402V12h5.777l6.038 6.038v33.367l-6.038 6.038zm-8.505 0-6.037-6.038V18.038L349.347 12h5.778v8.18h-2.402l-1.233 1.233V48.03l1.233 1.233h2.402v8.18z" fill="#fff"/></svg>